<svg xmlns="http://www.w3.org/2000/svg" viewBox="0 0 900 620" role="img" aria-labelledby="title">
  <title id="title">Spatial web prototype</title>
  <defs>
    <radialGradient id="bg" cx="50%" cy="40%" r="70%">
      <stop offset="0" stop-color="#252525"/>
      <stop offset="0.48" stop-color="#0b0b0b"/>
      <stop offset="1" stop-color="#020202"/>
    </radialGradient>
    <linearGradient id="edge" x1="0" y1="0" x2="1" y2="1">
      <stop offset="0" stop-color="#fff" stop-opacity=".8"/>
      <stop offset="1" stop-color="#fff" stop-opacity=".08"/>
    </linearGradient>
    <filter id="grain">
      <feTurbulence type="fractalNoise" baseFrequency="0.72" numOctaves="3" seed="31"/>
      <feColorMatrix values="0 0 0 0 1 0 0 0 0 1 0 0 0 0 1 0 0 0 .16 0"/>
    </filter>
  </defs>
  <rect width="900" height="620" fill="url(#bg)"/>
  <g transform="translate(450 316)">
    <path d="M-265-82 0-190 264-82 0 18Z" fill="#d7d7d7" opacity=".08" stroke="url(#edge)" stroke-width="2"/>
    <path d="M-265-82 0 18 0 224-265 92Z" fill="#fff" opacity=".045" stroke="#fff" stroke-opacity=".12"/>
    <path d="M264-82 0 18 0 224 264 92Z" fill="#fff" opacity=".075" stroke="#fff" stroke-opacity=".16"/>
    <path d="M0-190V18M-174-45 0-122l174 77M-90-10 0-50l90 40" stroke="#fff" stroke-opacity=".22"/>
    <circle cx="0" cy="18" r="58" fill="none" stroke="#efefef" stroke-width="3" opacity=".42"/>
    <circle cx="0" cy="18" r="116" fill="none" stroke="#efefef" stroke-width="1" opacity=".16"/>
  </g>
  <g font-family="JetBrains Mono, monospace" font-size="14" letter-spacing="6" fill="#fff" opacity=".55">
    <text x="68" y="86">SPATIAL WEB PROTOTYPE</text>
    <text x="570" y="548">DEPTH / 03</text>
  </g>
  <rect x="46" y="44" width="808" height="532" fill="none" stroke="#fff" stroke-opacity=".1"/>
  <rect width="900" height="620" filter="url(#grain)" opacity=".45"/>
</svg>
